<svg width="178" height="31" viewBox="0 0 178 31" fill="none" xmlns="http://www.w3.org/2000/svg">
<path d="M4.25879 5.76367L6.54883 1.04688H8.46289L5.12695 7.33594V11H3.39062V7.33594L0.0478516 1.04688H1.96875L4.25879 5.76367ZM17.2812 6.2832C17.2812 7.25846 17.1126 8.11523 16.7754 8.85352C16.4382 9.58724 15.9551 10.1523 15.3262 10.5488C14.7018 10.9408 13.9818 11.1367 13.166 11.1367C12.3594 11.1367 11.6393 10.9408 11.0059 10.5488C10.377 10.1523 9.88932 9.58952 9.54297 8.86035C9.20117 8.13118 9.02799 7.29036 9.02344 6.33789V5.77734C9.02344 4.80664 9.19434 3.94987 9.53613 3.20703C9.88249 2.46419 10.3678 1.89681 10.9922 1.50488C11.6211 1.1084 12.3411 0.910156 13.1523 0.910156C13.9635 0.910156 14.6813 1.10612 15.3057 1.49805C15.9346 1.88542 16.4199 2.44596 16.7617 3.17969C17.1035 3.90885 17.2767 4.75879 17.2812 5.72949V6.2832ZM15.5518 5.76367C15.5518 4.66081 15.3421 3.81543 14.9229 3.22754C14.5081 2.63965 13.918 2.3457 13.1523 2.3457C12.4049 2.3457 11.8193 2.63965 11.3955 3.22754C10.9762 3.81087 10.762 4.63802 10.7529 5.70898V6.2832C10.7529 7.37695 10.9648 8.22233 11.3887 8.81934C11.8171 9.41634 12.4095 9.71484 13.166 9.71484C13.9316 9.71484 14.5195 9.42318 14.9297 8.83984C15.3444 8.25651 15.5518 7.4043 15.5518 6.2832V5.76367ZM26.2842 1.04688V7.69824C26.2842 8.75553 25.9447 9.59408 25.2656 10.2139C24.5911 10.8291 23.6911 11.1367 22.5654 11.1367C21.4261 11.1367 20.5215 10.8337 19.8516 10.2275C19.1816 9.61686 18.8467 8.77148 18.8467 7.69141V1.04688H20.5693V7.70508C20.5693 8.37044 20.738 8.87858 21.0752 9.22949C21.4124 9.5804 21.9092 9.75586 22.5654 9.75586C23.8962 9.75586 24.5615 9.05404 24.5615 7.65039V1.04688H26.2842ZM35.3281 2.44141H32.2246V11H30.5088V2.44141H27.4326V1.04688H35.3281V2.44141ZM43.9209 1.04688V7.69824C43.9209 8.75553 43.5814 9.59408 42.9023 10.2139C42.2279 10.8291 41.3278 11.1367 40.2021 11.1367C39.0628 11.1367 38.1582 10.8337 37.4883 10.2275C36.8184 9.61686 36.4834 8.77148 36.4834 7.69141V1.04688H38.2061V7.70508C38.2061 8.37044 38.3747 8.87858 38.7119 9.22949C39.0492 9.5804 39.5459 9.75586 40.2021 9.75586C41.5329 9.75586 42.1982 9.05404 42.1982 7.65039V1.04688H43.9209ZM45.7734 11V1.04688H49.1846C50.3102 1.04688 51.167 1.27246 51.7549 1.72363C52.3428 2.1748 52.6367 2.84701 52.6367 3.74023C52.6367 4.19596 52.5137 4.60612 52.2676 4.9707C52.0215 5.33529 51.6615 5.61784 51.1875 5.81836C51.7253 5.96419 52.14 6.23991 52.4316 6.64551C52.7279 7.04655 52.876 7.52962 52.876 8.09473C52.876 9.02897 52.5752 9.74674 51.9736 10.248C51.3766 10.7493 50.5199 11 49.4033 11H45.7734ZM47.5029 6.50879V9.61914H49.4238C49.9661 9.61914 50.39 9.4847 50.6953 9.21582C51.0007 8.94694 51.1533 8.57324 51.1533 8.09473C51.1533 7.06022 50.6247 6.53158 49.5674 6.50879H47.5029ZM47.5029 5.2373H49.1982C49.736 5.2373 50.1553 5.11654 50.4561 4.875C50.7614 4.62891 50.9141 4.28255 50.9141 3.83594C50.9141 3.34375 50.7728 2.98828 50.4902 2.76953C50.2122 2.55078 49.777 2.44141 49.1846 2.44141H47.5029V5.2373ZM60.4229 6.55664H56.335V9.61914H61.1133V11H54.6055V1.04688H61.0654V2.44141H56.335V5.18945H60.4229V6.55664ZM62.7061 4L61.8584 3.47363C62.2686 2.87663 62.4805 2.24544 62.4941 1.58008V0.5H63.9502V1.44336C63.9502 1.91276 63.8294 2.38672 63.5879 2.86523C63.3509 3.33919 63.057 3.71745 62.7061 4ZM65.5566 11V1.04688H68.4961C69.3757 1.04688 70.1549 1.24284 70.834 1.63477C71.5176 2.02669 72.0462 2.58268 72.4199 3.30273C72.7936 4.02279 72.9805 4.84766 72.9805 5.77734V6.27637C72.9805 7.21973 72.7913 8.04915 72.4131 8.76465C72.0394 9.48014 71.5039 10.0316 70.8066 10.4189C70.1139 10.8063 69.3187 11 68.4209 11H65.5566ZM67.2861 2.44141V9.61914H68.4141C69.321 9.61914 70.016 9.33659 70.499 8.77148C70.9867 8.20182 71.235 7.38607 71.2441 6.32422V5.77051C71.2441 4.69043 71.0094 3.86556 70.54 3.2959C70.0706 2.72624 69.3893 2.44141 68.4961 2.44141H67.2861ZM80.5205 6.55664H76.4326V9.61914H81.2109V11H74.7031V1.04688H81.1631V2.44141H76.4326V5.18945H80.5205V6.55664ZM90.5146 11H88.7852L84.3486 3.93848V11H82.6191V1.04688H84.3486L88.7988 8.13574V1.04688H90.5146V11ZM96.0449 11V1.04688H98.9844C99.8639 1.04688 100.643 1.24284 101.322 1.63477C102.006 2.02669 102.535 2.58268 102.908 3.30273C103.282 4.02279 103.469 4.84766 103.469 5.77734V6.27637C103.469 7.21973 103.28 8.04915 102.901 8.76465C102.528 9.48014 101.992 10.0316 101.295 10.4189C100.602 10.8063 99.807 11 98.9092 11H96.0449ZM97.7744 2.44141V9.61914H98.9023C99.8092 9.61914 100.504 9.33659 100.987 8.77148C101.475 8.20182 101.723 7.38607 101.732 6.32422V5.77051C101.732 4.69043 101.498 3.86556 101.028 3.2959C100.559 2.72624 99.8776 2.44141 98.9844 2.44141H97.7744ZM110.612 8.68262H106.757L105.95 11H104.152L107.912 1.04688H109.464L113.23 11H111.426L110.612 8.68262ZM107.242 7.28809H110.127L108.685 3.15918L107.242 7.28809ZM122.268 11H120.545V6.57715H116.095V11H114.365V1.04688H116.095V5.18945H120.545V1.04688H122.268V11ZM130.013 8.68262H126.157L125.351 11H123.553L127.312 1.04688H128.864L132.631 11H130.826L130.013 8.68262ZM126.643 7.28809H129.527L128.085 3.15918L126.643 7.28809ZM142.987 6.78223H138.981V11H137.252V1.04688H143.575V2.44141H138.981V5.40137H142.987V6.78223ZM149.208 8.68262H145.353L144.546 11H142.748L146.508 1.04688H148.06L151.826 11H150.021L149.208 8.68262ZM145.838 7.28809H148.723L147.28 3.15918L145.838 7.28809ZM154.588 9.61914H159.906V11H152.496V9.87891L157.644 2.44141H152.53V1.04688H159.742V2.14062L154.588 9.61914ZM163.126 9.61914H167.645V11H161.396V1.04688H163.126V9.61914ZM174.679 8.68262H170.823L170.017 11H168.219L171.979 1.04688H173.53L177.297 11H175.492L174.679 8.68262ZM171.309 7.28809H174.193L172.751 3.15918L171.309 7.28809ZM2.83691 27H1.11426V17.0469H2.83691V27ZM1.07324 15.4131C1.07324 15.1715 1.15072 14.971 1.30566 14.8115C1.46061 14.6475 1.68164 14.5654 1.96875 14.5654C2.25586 14.5654 2.47689 14.6475 2.63184 14.8115C2.78678 14.971 2.86426 15.1715 2.86426 15.4131C2.86426 15.6501 2.78678 15.8483 2.63184 16.0078C2.47689 16.1673 2.25586 16.2471 1.96875 16.2471C1.68164 16.2471 1.46061 16.1673 1.30566 16.0078C1.15072 15.8483 1.07324 15.6501 1.07324 15.4131ZM12.5576 23.7598C12.4574 24.8216 12.0654 25.651 11.3818 26.248C10.6982 26.8405 9.78906 27.1367 8.6543 27.1367C7.86133 27.1367 7.16178 26.9499 6.55566 26.5762C5.9541 26.1979 5.48926 25.6624 5.16113 24.9697C4.83301 24.277 4.66211 23.4727 4.64844 22.5566V21.627C4.64844 20.6882 4.81478 19.861 5.14746 19.1455C5.48014 18.43 5.95638 17.8786 6.57617 17.4912C7.20052 17.1038 7.92057 16.9102 8.73633 16.9102C9.83464 16.9102 10.7188 17.2087 11.3887 17.8057C12.0586 18.4027 12.4482 19.2458 12.5576 20.335H10.835C10.7529 19.6195 10.5433 19.1045 10.2061 18.79C9.87337 18.471 9.38346 18.3115 8.73633 18.3115C7.98438 18.3115 7.4056 18.5872 7 19.1387C6.59896 19.6855 6.39388 20.4899 6.38477 21.5518V22.4336C6.38477 23.5091 6.57617 24.3294 6.95898 24.8945C7.34635 25.4596 7.91146 25.7422 8.6543 25.7422C9.33333 25.7422 9.84375 25.5895 10.1855 25.2842C10.5273 24.9788 10.7438 24.4707 10.835 23.7598H12.5576ZM9.24902 27.0137L9.17383 27.3828C9.85742 27.5059 10.1992 27.9001 10.1992 28.5654C10.1992 29.0439 10.0033 29.4176 9.61133 29.6865C9.2194 29.9554 8.67025 30.0898 7.96387 30.0898L7.91602 29.1533C8.2168 29.1533 8.44694 29.0986 8.60645 28.9893C8.77051 28.8844 8.85254 28.7363 8.85254 28.5449C8.85254 28.3398 8.77051 28.1963 8.60645 28.1143C8.44694 28.0368 8.1849 27.9867 7.82031 27.9639L8.03906 27.0137H9.24902ZM19.9268 22.5566H15.8389V25.6191H20.6172V27H14.1094V17.0469H20.5693V18.4414H15.8389V21.1895H19.9268V22.5566ZM25.6826 23.165H23.7549V27H22.0254V17.0469H25.5254C26.6738 17.0469 27.5602 17.3044 28.1846 17.8193C28.8089 18.3343 29.1211 19.0794 29.1211 20.0547C29.1211 20.7201 28.9593 21.2783 28.6357 21.7295C28.3167 22.1761 27.8701 22.5202 27.2959 22.7617L29.5312 26.9111V27H27.6787L25.6826 23.165ZM23.7549 21.7773H25.5322C26.1156 21.7773 26.5713 21.6315 26.8994 21.3398C27.2275 21.0436 27.3916 20.6403 27.3916 20.1299C27.3916 19.5967 27.2389 19.1842 26.9336 18.8926C26.6328 18.6009 26.1816 18.4505 25.5801 18.4414H23.7549V21.7773ZM32.5869 27H30.8643V17.0469H32.5869V27ZM30.8232 15.4131C30.8232 15.1715 30.9007 14.971 31.0557 14.8115C31.2106 14.6475 31.4316 14.5654 31.7188 14.5654C32.0059 14.5654 32.2269 14.6475 32.3818 14.8115C32.5368 14.971 32.6143 15.1715 32.6143 15.4131C32.6143 15.6501 32.5368 15.8483 32.3818 16.0078C32.2269 16.1673 32.0059 16.2471 31.7188 16.2471C31.4316 16.2471 31.2106 16.1673 31.0557 16.0078C30.9007 15.8483 30.8232 15.6501 30.8232 15.4131ZM37.5703 22.7002L36.4424 23.8965V27H34.7129V17.0469H36.4424V21.7158L37.3994 20.5332L40.3115 17.0469H42.4033L38.7051 21.4561L42.6152 27H40.5645L37.5703 22.7002Z" fill="white" fill-opacity="0.6"/>
</svg>
